<svg xmlns="http://www.w3.org/2000/svg" width="390" height="844" viewBox="0 0 390 844">
  <defs>
    <linearGradient id="pageBg" x1="0" y1="0" x2="0" y2="1">
      <stop offset="0" stop-color="#fbfff8"/>
      <stop offset="1" stop-color="#eef8ed"/>
    </linearGradient>
    <linearGradient id="greenBtn" x1="0" y1="0" x2="0" y2="1">
      <stop offset="0" stop-color="#7cf08a"/>
      <stop offset="1" stop-color="#5ee174"/>
    </linearGradient>
    <filter id="softShadow" x="-20%" y="-20%" width="140%" height="140%">
      <feDropShadow dx="0" dy="8" stdDeviation="10" flood-color="#17362f" flood-opacity="0.08"/>
    </filter>
  </defs>

  <rect width="390" height="844" rx="34" fill="#111111"/>
  <rect x="8" y="0" width="374" height="812" rx="30" fill="url(#pageBg)"/>
  <rect x="120" y="0" width="150" height="32" rx="15" fill="#050505"/>
  <text x="28" y="20" font-family="Arial, sans-serif" font-size="12" fill="#17362f">0:46</text>
  <text x="186" y="66" text-anchor="middle" font-family="Arial, sans-serif" font-size="12" fill="#17362f">AI智能对话</text>
  <circle cx="330" cy="58" r="18" fill="#ffffff" stroke="#dce8d9"/>
  <circle cx="322" cy="58" r="2.5" fill="#111111"/>
  <circle cx="330" cy="58" r="2.5" fill="#111111"/>
  <circle cx="338" cy="58" r="2.5" fill="#111111"/>

  <g filter="url(#softShadow)">
    <rect x="16" y="76" width="358" height="82" rx="0" fill="#f5fcf4" opacity="0.96"/>
  </g>
  <text x="28" y="108" font-family="Arial, sans-serif" font-size="14" font-weight="700" fill="#16945f">东成果业</text>
  <text x="28" y="134" font-family="Arial, sans-serif" font-size="22" font-weight="800" fill="#17362f">AI智能对话</text>
  <rect x="296" y="100" width="58" height="28" rx="14" fill="#e8f8ed"/>
  <text x="325" y="118" text-anchor="middle" font-family="Arial, sans-serif" font-size="12" font-weight="700" fill="#16945f">已连接</text>

  <g>
    <text x="195" y="184" text-anchor="middle" font-family="Arial, sans-serif" font-size="12" fill="#98a59d">下拉加载更多</text>
    <rect x="292" y="202" width="52" height="34" rx="10" fill="#159866"/>
    <text x="318" y="224" text-anchor="middle" font-family="Arial, sans-serif" font-size="14" font-weight="700" fill="#ffffff">你好</text>

    <rect x="22" y="246" width="184" height="38" rx="12" fill="#ffffff" stroke="#e0eadc"/>
    <text x="38" y="270" font-family="Arial, sans-serif" font-size="13" fill="#40584f">您好，请问具体需求，我来协助。</text>

    <rect x="275" y="304" width="70" height="34" rx="10" fill="#159866"/>
    <text x="310" y="326" text-anchor="middle" font-family="Arial, sans-serif" font-size="14" font-weight="700" fill="#ffffff">你好</text>

    <rect x="22" y="360" width="270" height="42" rx="12" fill="#ffffff" stroke="#e0eadc"/>
    <text x="38" y="385" font-family="Arial, sans-serif" font-size="13" fill="#40584f">您好，如需查询订单或价格，请直接说明。</text>

    <rect x="233" y="426" width="112" height="34" rx="10" fill="#159866"/>
    <text x="289" y="448" text-anchor="middle" font-family="Arial, sans-serif" font-size="14" font-weight="700" fill="#ffffff">勇哥 蓝莓50件</text>

    <rect x="22" y="488" width="290" height="64" rx="12" fill="#ffffff" stroke="#e0eadc"/>
    <text x="38" y="512" font-family="Arial, sans-serif" font-size="13" fill="#40584f">已生成出单草稿：客户 勇哥，</text>
    <text x="38" y="534" font-family="Arial, sans-serif" font-size="13" fill="#40584f">共 1 个商品，合计 ¥1000。</text>

    <rect x="245" y="584" width="100" height="34" rx="10" fill="#159866"/>
    <text x="295" y="606" text-anchor="middle" font-family="Arial, sans-serif" font-size="14" font-weight="700" fill="#ffffff">确认出单</text>
  </g>

  <g filter="url(#softShadow)">
    <rect x="16" y="652" width="358" height="112" rx="0" fill="#f7fcf4" opacity="0.98"/>
  </g>
  <rect x="22" y="668" width="278" height="56" rx="18" fill="#f8fbf4" stroke="#cfe9d4"/>
  <text x="161" y="703" text-anchor="middle" font-family="Arial, sans-serif" font-size="15" font-weight="700" fill="#17362f">按住说话</text>

  <g transform="translate(316 662)">
    <circle cx="28" cy="28" r="28" fill="#f8fbf4" stroke="#5ee174" stroke-width="4"/>
    <rect x="15" y="15" width="8" height="8" rx="2" fill="#5ee174"/>
    <rect x="26" y="15" width="8" height="8" rx="2" fill="#5ee174"/>
    <rect x="37" y="15" width="8" height="8" rx="2" fill="#5ee174"/>
    <rect x="15" y="28" width="8" height="8" rx="2" fill="#5ee174"/>
    <rect x="26" y="28" width="8" height="8" rx="2" fill="#5ee174"/>
    <rect x="37" y="28" width="8" height="8" rx="2" fill="#5ee174"/>
    <rect x="21" y="42" width="24" height="6" rx="3" fill="#5ee174"/>
  </g>

  <rect x="8" y="764" width="374" height="48" fill="#ffffff"/>
  <g font-family="Arial, sans-serif" font-size="10" text-anchor="middle">
    <circle cx="48" cy="784" r="9" fill="#16945f"/>
    <text x="48" y="806" fill="#16945f">AI</text>
    <circle cx="146" cy="784" r="8" fill="none" stroke="#7a8880" stroke-width="2"/>
    <text x="146" y="806" fill="#718078">点单</text>
    <rect x="238" y="775" width="14" height="18" rx="2" fill="none" stroke="#7a8880" stroke-width="2"/>
    <text x="245" y="806" fill="#718078">订单</text>
    <path d="M337 775 L348 781 L348 793 L337 799 L326 793 L326 781 Z" fill="none" stroke="#7a8880" stroke-width="2"/>
    <text x="337" y="806" fill="#718078">其他</text>
  </g>
  <rect x="132" y="822" width="126" height="5" rx="3" fill="#111111"/>
</svg>
